<?xml version="1.0" standalone="no"?>
<!DOCTYPE svg PUBLIC "-//W3C//DTD SVG 20010904//EN"
 "http://www.w3.org/TR/2001/REC-SVG-20010904/DTD/svg10.dtd">
<svg version="1.0" xmlns="http://www.w3.org/2000/svg"
 width="512.000000pt" height="512.000000pt" viewBox="0 0 512.000000 512.000000"
 preserveAspectRatio="xMidYMid meet">
<metadata>
Created by potrace 1.11, written by Peter Selinger 2001-2013
</metadata>
<g transform="translate(0.000000,512.000000) scale(0.100000,-0.100000)"
fill="#000000" stroke="none">
<path d="M2345 4909 c-192 -18 -456 -76 -609 -133 -87 -33 -274 -124 -382
-186 -282 -163 -592 -463 -786 -765 -58 -89 -171 -314 -214 -425 -42 -110 -88
-284 -115 -435 -27 -152 -37 -482 -20 -646 72 -695 443 -1309 1024 -1697 191
-127 324 -195 523 -268 108 -39 140 -44 74 -11 -44 22 -45 23 -48 76 -2 30 2
59 7 64 8 8 11 7 11 -2 0 -8 10 -3 25 13 25 27 42 30 119 20 57 -8 69 -23 96
-125 25 -96 25 -109 -2 -109 -45 0 -8 -10 108 -30 160 -28 374 -39 547 -29
149 9 375 43 391 59 6 6 9 76 7 168 -1 86 1 170 4 185 12 47 32 32 40 -30 9
-73 39 -204 54 -231 6 -11 11 -30 11 -41 0 -12 4 -21 10 -21 47 0 193 55 335
126 167 83 246 130 198 118 -46 -12 -137 210 -131 318 2 28 8 53 15 55 6 2 27
-10 46 -27 57 -50 158 -91 220 -88 28 1 64 -1 80 -4 15 -4 27 -2 27 3 0 5 13
0 30 -12 16 -12 26 -27 23 -33 -35 -55 227 203 327 324 61 75 155 215 228 344
128 223 234 548 274 836 19 140 16 488 -5 630 -21 139 -74 363 -90 382 -20 24
-334 269 -467 364 -634 454 -1134 610 -1473 460 -55 -24 -238 -133 -352 -209
-129 -86 -299 -232 -440 -376 -65 -67 -84 -81 -109 -81 -68 0 -81 32 -61 157
45 282 138 481 323 688 99 111 315 244 422 260 25 4 73 15 108 26 192 57 413
22 687 -111 200 -97 386 -219 775 -510 107 -80 233 -171 280 -203 47 -32 100
-70 119 -83 19 -13 36 -22 38 -20 7 7 -53 119 -109 203 -155 231 -358 448
-569 606 -131 98 -235 160 -404 242 -150 73 -219 98 -378 140 -289 75 -567 99
-842 74z m1039 -1335 c16 -42 35 -148 30 -168 -7 -28 68 -301 101 -370 14 -28
17 -41 9 -28 -9 12 -23 22 -30 22 -20 0 -17 -41 6 -102 21 -55 15 -78 -20 -78
-29 0 -48 32 -55 93 -9 71 -27 71 -37 -2 -9 -60 -26 -97 -60 -127 -34 -32 -63
-38 -83 -18 -17 17 -17 42 -1 104 4 14 -5 4 -19 -22 -25 -48 -57 -67 -90 -54
-20 7 -19 29 5 76 11 22 19 40 17 40 -2 0 -19 -14 -37 -30 -19 -17 -46 -34
-60 -37 -14 -4 -38 -15 -55 -25 -39 -24 -65 -23 -65 1 0 12 27 44 66 78 71 63
119 123 158 201 33 65 119 281 142 357 29 94 62 132 78 89z m180 -484 c18 -43
18 -45 1 -25 -25 31 -52 86 -59 125 -6 30 -4 28 20 -20 15 -30 32 -66 38 -80z
m-1806 -140 c30 -5 56 -11 59 -14 3 -3 23 4 45 15 33 17 51 19 99 14 32 -4 75
-15 94 -25 33 -17 40 -17 70 -4 48 20 64 18 91 -11 20 -21 28 -24 71 -18 54 6
43 12 131 -84 18 -19 20 -28 12 -38 -21 -25 0 -35 76 -35 85 0 115 -18 107
-63 -3 -13 0 -34 6 -46 14 -26 -1 -61 -26 -61 -13 0 -14 -3 -6 -11 16 -16 61
-3 68 21 9 28 65 29 65 1 0 -11 -5 -23 -10 -26 -19 -12 1 -25 36 -25 63 0 112
-38 98 -75 -7 -17 -49 -20 -59 -5 -7 12 -45 13 -45 2 0 -17 52 -32 89 -26 20
4 63 25 95 48 33 23 61 37 63 31 2 -5 8 -17 13 -25 9 -13 12 -13 21 3 12 20
40 22 57 5 12 -12 15 -8 26 43 5 25 4 27 -27 25 -29 -1 -32 2 -35 29 -5 44
-14 48 -63 26 -40 -18 -45 -18 -61 -4 -15 14 -22 12 -79 -16 -48 -24 -65 -28
-81 -20 -17 9 -18 13 -5 32 14 21 116 89 245 163 41 23 71 34 85 31 12 -3 64
-17 116 -31 51 -14 104 -26 118 -26 13 0 33 -5 44 -11 16 -8 26 -5 51 16 24
21 37 25 57 19 14 -4 43 -7 65 -6 34 1 45 -5 95 -52 31 -30 71 -66 89 -81 66
-55 18 -58 -51 -3 -21 17 -41 28 -44 25 -3 -3 9 -30 26 -60 56 -98 8 -123 -59
-32 -40 54 -68 73 -57 38 22 -66 30 -103 24 -109 -14 -14 -39 8 -58 51 -18 40
-23 44 -36 33 -13 -10 -18 -9 -29 7 -8 10 -14 29 -14 41 0 13 -5 35 -11 51 -8
22 -12 24 -19 13 -6 -8 -10 -30 -10 -48 0 -60 -32 -94 -46 -50 -7 22 -7 22
-29 -6 -16 -20 -28 -26 -41 -22 -14 4 -30 -7 -62 -44 l-43 -50 27 0 c17 0 24
-4 21 -12 -2 -7 -11 -38 -20 -68 -28 -97 -91 -212 -141 -258 -48 -44 -64 -82
-26 -62 16 8 20 8 20 -3 0 -21 58 -30 76 -12 16 15 30 11 97 -26 10 -5 51 -11
91 -13 78 -4 116 -18 116 -41 0 -35 -24 -122 -38 -138 -20 -23 -56 -18 -60 8
-8 40 -21 36 -54 -16 -56 -87 -135 -146 -161 -120 -15 15 18 84 66 139 20 24
37 49 37 55 -1 7 -11 -1 -23 -17 -65 -85 -164 -156 -217 -156 -13 0 -20 -7
-20 -19 0 -17 7 -18 80 -16 77 2 83 1 122 -29 22 -17 47 -35 54 -41 9 -6 28
-5 55 2 59 16 72 8 64 -36 -14 -76 -47 -131 -117 -196 -75 -69 -155 -115 -201
-115 -28 0 -29 2 -24 35 3 19 4 35 1 35 -8 0 -74 -45 -74 -51 0 -3 15 -22 34
-42 42 -46 79 -48 180 -12 39 13 72 23 73 21 5 -5 -123 -118 -150 -133 -12 -7
-46 -12 -75 -13 -54 0 -82 16 -109 64 -8 14 -17 17 -42 11 -38 -8 -40 -19 -3
-34 37 -16 82 -57 82 -75 0 -19 -24 -31 -74 -39 -47 -8 -71 4 -83 40 -17 47
-4 58 29 26 24 -23 30 -25 38 -13 14 22 7 35 -21 38 -13 2 -29 8 -35 13 -7 5
-35 -1 -75 -17 -40 -17 -91 -29 -136 -32 -66 -4 -72 -6 -70 -26 1 -11 11 -24
22 -28 31 -10 125 -9 125 1 0 15 51 71 64 71 7 0 17 -17 22 -37 8 -35 14 -40
69 -59 37 -13 61 -28 63 -39 2 -10 -19 -38 -55 -73 -58 -56 -47 -50 69 37 l58
43 49 -12 c28 -6 60 -9 72 -5 12 4 31 3 43 -3 42 -19 109 -36 145 -36 20 0 56
1 81 2 47 1 225 -3 248 -6 23 -3 42 -69 44 -158 3 -73 0 -88 -14 -98 -23 -14
-57 19 -67 65 -10 49 -37 50 -46 2 -13 -72 -73 -143 -121 -143 -13 0 -32 12
-44 28 -18 22 -21 35 -16 73 7 48 1 79 -15 79 -5 0 -29 -16 -54 -35 -50 -37
-114 -60 -145 -50 -28 9 -35 47 -16 83 28 54 17 105 -14 67 -7 -9 -29 -15 -51
-15 -31 0 -40 -5 -51 -26 -15 -31 -180 -134 -253 -159 -44 -14 -50 -14 -84 2
-80 40 -62 101 47 162 34 19 60 36 58 39 -3 2 -31 -6 -63 -18 -32 -12 -82 -22
-113 -22 -36 0 -58 -6 -65 -15 -6 -8 -38 -21 -70 -28 -52 -13 -63 -12 -83 1
-13 8 -25 21 -28 29 -4 10 -16 6 -49 -16 -68 -46 -155 -81 -217 -86 -47 -5
-63 -2 -92 17 -33 20 -48 54 -28 62 5 2 15 16 23 32 10 21 38 42 99 73 92 48
113 63 88 63 -24 0 -68 39 -68 60 0 11 -11 29 -24 42 -24 22 -24 27 -19 106 6
90 27 132 64 132 11 0 41 21 67 48 26 26 58 52 72 59 55 26 119 52 191 78 l76
26 59 -22 c71 -26 101 -28 148 -5 37 17 48 36 21 36 -8 0 -15 7 -15 15 0 19
-27 19 -60 0 -14 -8 -47 -14 -73 -15 -39 0 -52 5 -71 25 -28 30 -40 31 -58 6
-20 -28 -102 -55 -128 -41 -25 13 -40 41 -40 75 0 25 -2 26 -27 19 -16 -4 -38
-7 -50 -7 -27 1 -27 0 -10 -28 10 -18 9 -23 -12 -40 -27 -22 -78 -24 -104 -4
-15 10 -17 21 -12 44 8 39 -11 42 -45 6 -24 -26 -49 -32 -66 -16 -5 5 -27 13
-48 17 -38 7 -39 6 -33 -19 7 -26 -6 -37 -44 -37 -28 0 -23 -16 14 -41 73 -50
88 -74 92 -140 5 -69 -6 -99 -35 -99 -24 0 -25 -8 -5 -34 8 -11 15 -34 15 -52
0 -39 -34 -70 -88 -80 -30 -6 -39 -3 -55 17 -12 15 -17 34 -15 56 3 23 0 33
-10 33 -27 0 -52 -21 -52 -44 0 -38 -33 -60 -79 -52 -33 5 -41 3 -53 -17 -9
-12 -32 -28 -52 -35 -35 -13 -39 -12 -62 9 -13 12 -23 30 -22 38 2 12 -7 16
-42 17 -25 1 -51 2 -57 3 -35 3 0 101 36 101 18 0 41 18 41 32 0 14 -38 9 -43
-6 -7 -19 -52 -12 -83 13 -21 16 -22 20 -9 37 8 11 15 29 15 41 0 12 5 25 10
28 18 11 11 41 -15 65 -23 22 -26 22 -43 7 -10 -10 -25 -18 -33 -18 -8 -1 1
-4 20 -8 43 -8 58 -31 45 -68 -7 -20 -17 -29 -37 -31 -32 -4 -34 -13 -7 -30
11 -7 20 -20 20 -31 0 -10 9 -26 20 -36 21 -19 27 -55 9 -55 -6 0 -8 -9 -4
-21 12 -38 -50 -63 -96 -38 -16 8 -23 7 -33 -7 -9 -11 -28 -17 -56 -18 -41 -1
-45 1 -53 31 -9 28 -14 32 -50 35 -27 2 -44 10 -54 24 -12 18 -11 24 8 48 12
15 27 25 34 22 18 -6 40 20 25 29 -6 4 -17 1 -25 -5 -21 -18 -51 -3 -74 35
-16 28 -27 35 -50 35 -35 0 -46 25 -38 88 3 26 -1 43 -13 57 -35 41 -49 97
-40 166 7 60 6 66 -16 87 -13 13 -24 30 -24 39 0 9 -7 24 -16 34 -13 15 -14
21 -1 52 8 19 23 41 33 48 29 22 64 76 64 99 0 12 -5 31 -12 43 -6 12 -13 45
-14 72 -3 56 22 95 61 95 27 0 65 27 65 47 0 9 -8 25 -17 35 -14 16 -15 24 -6
48 6 17 9 39 6 50 -4 14 2 23 21 31 14 7 26 18 26 26 0 18 39 32 72 26 34 -7
42 10 23 48 -15 29 -15 32 1 50 9 10 25 21 35 24 11 4 19 12 19 19 0 7 19 28
42 46 30 24 51 34 75 33 39 -1 70 31 52 53 -8 10 -4 20 15 39 25 25 40 28 129
25 44 -1 61 10 37 25 -15 10 -12 25 8 32 9 4 35 27 57 51 37 40 45 45 85 45
33 0 53 6 74 24 23 19 37 23 60 19 17 -4 55 -11 84 -16z m1862 -57 c25 -22 25
-38 -1 -28 -13 5 -69 88 -69 102 0 3 10 -7 23 -23 12 -16 33 -39 47 -51z m263
-238 c83 -58 105 -82 88 -98 -10 -10 -22 -1 -60 41 -40 44 -53 52 -82 52 -23
0 -44 8 -59 23 l-25 22 23 3 c12 2 19 8 16 14 -9 14 25 -5 99 -57z m-552 -171
c9 -12 23 -14 53 -10 61 8 84 -16 107 -112 26 -105 24 -145 -5 -179 -34 -40
-56 -19 -56 53 0 53 -14 72 -27 37 -30 -90 -96 -188 -144 -213 -29 -16 -49 -1
-49 35 0 19 4 36 9 39 10 6 43 96 35 96 -2 0 -24 -20 -48 -45 -43 -46 -76 -53
-76 -16 0 21 41 134 84 229 42 93 85 125 117 86z m600 -90 c50 -31 93 -63 96
-70 17 -45 -45 -19 -132 55 -55 48 -75 71 -61 71 4 0 47 -25 97 -56z m-320 5
c78 -66 143 -203 103 -216 -24 -8 -103 67 -129 124 -27 56 -44 133 -31 133 4
0 30 -19 57 -41z m250 -109 c11 0 4 15 -19 43 -24 28 -5 33 24 6 33 -30 57
-77 50 -95 -18 -46 -110 13 -178 115 -31 46 -19 43 47 -14 36 -30 70 -55 76
-55z m354 -221 c53 -20 72 -39 39 -39 -22 0 -80 28 -95 46 -15 18 -10 18 56
-7z m-571 -73 c47 2 48 1 67 -40 10 -23 32 -60 49 -81 31 -39 39 -82 18 -103
-7 -7 -29 -12 -50 -12 -67 0 -128 72 -147 175 -7 39 -7 39 -20 17 -11 -20 -10
-35 4 -92 26 -106 8 -150 -37 -89 -38 50 -53 204 -23 229 8 7 15 10 15 7 0 -4
10 -2 23 2 14 6 27 5 37 -3 8 -6 37 -11 64 -10z m187 -60 c42 -41 58 -81 41
-98 -13 -13 -53 16 -93 69 -57 76 -17 99 52 29z m189 -1 c66 -9 132 -44 128
-69 -4 -28 -52 -39 -112 -25 -48 11 -107 54 -127 91 -11 20 -18 20 111 3z
m275 -216 c13 -19 -5 -23 -38 -6 l-32 16 32 0 c17 1 35 -4 38 -10z m-780 -82
c33 -8 80 -24 105 -36 25 -11 57 -21 72 -21 30 0 158 -48 158 -59 0 -3 34 -51
75 -106 85 -114 97 -147 66 -178 -50 -51 -161 -6 -273 111 -54 57 -80 93 -97
137 -13 33 -32 69 -42 80 -19 19 -19 19 -19 -5 1 -14 7 -43 15 -65 17 -48 19
-79 5 -106 -24 -44 -70 -3 -95 86 -22 74 -26 81 -36 62 -5 -8 -5 -36 0 -63 12
-61 0 -94 -34 -94 -31 0 -51 31 -60 90 -8 54 10 170 27 182 14 10 44 6 133
-15z m741 -22 c27 -14 27 -15 7 -15 -13 0 -23 4 -23 9 0 5 -8 12 -17 14 -10 3
-13 5 -7 6 7 0 25 -6 40 -14z m-69 -30 c106 -35 153 -43 153 -25 0 17 26 11
44 -9 29 -32 12 -40 -67 -34 -85 7 -134 22 -199 64 -78 50 -70 51 69 4z m143
-5 c0 -5 -7 -7 -15 -4 -8 4 -15 8 -15 10 0 2 7 4 15 4 8 0 15 -4 15 -10z
m-210 -45 c32 -16 41 -45 14 -45 -12 0 -49 15 -62 25 -4 3 9 35 15 35 2 0 17
-7 33 -15z m-2155 -20 c65 -11 67 -12 55 -35 -12 -22 -70 -50 -105 -50 -27 0
-40 15 -48 56 -7 38 0 47 33 41 14 -3 43 -8 65 -12z m676 -25 c5 0 9 -4 9 -10
0 -5 -13 -10 -30 -10 -29 0 -38 9 -23 24 4 3 13 4 21 1 7 -3 18 -5 23 -5z
m1427 -52 c8 -7 9 -15 3 -21 -10 -10 -71 21 -71 36 0 11 50 0 68 -15z m-708
-113 c16 -17 34 -25 56 -25 18 0 36 -5 39 -10 22 -35 -114 -192 -200 -231 -67
-31 -145 -19 -145 22 0 19 58 94 120 154 34 33 68 72 76 88 18 33 24 34 54 2z
m920 3 c34 -17 46 -30 48 -49 5 -42 -23 -44 -105 -5 -40 19 -73 38 -73 41 0 3
16 3 36 -1 34 -6 36 -6 25 15 -10 18 -9 21 7 21 10 0 38 -10 62 -22z m181 -3
c30 -5 49 -3 53 4 4 6 13 11 21 11 11 0 11 -6 -3 -30 -21 -37 -38 -43 -91 -31
-76 17 -129 70 -58 58 17 -3 53 -9 78 -12z m-785 -60 c20 -14 45 -25 55 -25
10 0 20 -4 23 -8 3 -5 46 -26 95 -46 49 -21 106 -50 126 -66 20 -16 59 -33 87
-39 93 -20 139 -61 112 -100 -11 -15 -26 -21 -55 -21 -48 0 -86 19 -157 77
-30 23 -58 43 -62 43 -21 0 -19 -23 5 -64 31 -53 23 -86 -21 -86 -67 0 -143
68 -203 181 -40 77 -57 97 -71 83 -6 -6 0 -28 16 -62 24 -51 25 -55 8 -73 -25
-28 -58 -24 -88 12 -31 37 -41 68 -41 136 0 60 8 72 36 55 17 -11 25 -10 52 7
40 26 39 26 83 -4z m-1716 -139 c-6 -8 -18 -12 -26 -9 -23 9 -16 23 12 23 22
0 24 -2 14 -14z m2309 -14 c15 -28 -4 -43 -40 -30 -35 12 -36 20 -6 34 32 16
35 16 46 -4z m-3100 -116 c25 -14 22 -19 -22 -30 -20 -5 -29 -2 -34 10 -3 9 0
20 8 25 18 11 19 11 48 -5z m779 -15 c3 -8 -1 -12 -9 -9 -7 2 -15 10 -17 17
-3 8 1 12 9 9 7 -2 15 -10 17 -17z"/>
<path d="M1820 2855 c0 -8 9 -15 20 -15 11 0 20 7 20 15 0 8 -9 15 -20 15 -11
0 -20 -7 -20 -15z"/>
<path d="M2220 2701 c0 -12 -8 -34 -17 -48 -18 -26 -18 -27 7 -20 14 4 38 10
54 14 16 3 45 22 65 41 37 37 32 38 -36 11 -28 -11 -34 -11 -52 6 -21 18 -21
18 -21 -4z"/>
<path d="M3045 2660 c-3 -5 -1 -10 4 -10 6 0 11 5 11 10 0 6 -2 10 -4 10 -3 0
-8 -4 -11 -10z"/>
<path d="M1545 2610 c-3 -5 -1 -10 4 -10 6 0 11 5 11 10 0 6 -2 10 -4 10 -3 0
-8 -4 -11 -10z"/>
<path d="M2103 2520 c-18 -7 -21 -14 -14 -32 8 -22 57 -43 66 -29 6 11 -10 64
-21 67 -5 2 -19 -1 -31 -6z"/>
<path d="M2932 2378 c-29 -28 -50 -53 -47 -56 3 -3 29 17 57 46 68 67 59 76
-10 10z"/>
<path d="M1890 2406 c0 -15 18 -31 26 -23 7 7 -7 37 -17 37 -5 0 -9 -6 -9 -14z"/>
<path d="M2190 2371 c0 -5 10 -11 23 -15 38 -10 43 -7 13 9 -33 17 -36 18 -36
6z"/>
<path d="M1852 2344 c-12 -8 -22 -21 -22 -29 0 -7 -13 -18 -30 -24 -16 -5 -30
-17 -30 -25 0 -22 23 -20 44 3 10 11 41 29 69 42 34 15 46 24 35 27 -10 2 -18
8 -18 13 0 14 -23 11 -48 -7z"/>
<path d="M2375 2340 c-3 -5 1 -13 10 -16 22 -9 29 1 11 15 -10 8 -16 9 -21 1z"/>
<path d="M2333 2246 c12 -25 27 -26 27 -1 0 7 -7 16 -16 19 -23 9 -23 8 -11
-18z"/>
<path d="M1505 2240 c3 -5 8 -10 11 -10 2 0 4 5 4 10 0 6 -5 10 -11 10 -5 0
-7 -4 -4 -10z"/>
<path d="M1730 2225 c-7 -8 -29 -15 -50 -15 -33 0 -37 -3 -33 -20 3 -11 13
-20 22 -20 42 0 87 -59 82 -107 -2 -17 2 -21 13 -17 20 8 20 13 0 53 -16 32
-16 87 0 124 10 22 -16 24 -34 2z"/>
<path d="M1364 2185 c-11 -34 -10 -35 10 -29 33 10 36 17 18 42 l-17 22 -11
-35z"/>
<path d="M1475 2190 c-3 -5 3 -10 14 -10 12 0 21 5 21 10 0 6 -6 10 -14 10 -8
0 -18 -4 -21 -10z"/>
<path d="M2680 2115 c-10 -12 -10 -15 4 -15 9 0 16 7 16 15 0 8 -2 15 -4 15
-2 0 -9 -7 -16 -15z"/>
<path d="M2264 2056 c9 -38 -3 -56 -53 -79 -44 -20 -45 -21 -18 -25 16 -2 42
5 63 18 19 12 43 20 54 17 11 -3 24 1 31 9 8 10 16 11 30 4 25 -14 43 18 24
44 -10 13 -21 16 -43 12 -20 -5 -33 -2 -42 9 -7 8 -21 15 -32 15 -16 0 -19 -5
-14 -24z"/>
<path d="M1150 1979 c0 -5 5 -7 10 -4 6 3 10 8 10 11 0 2 -4 4 -10 4 -5 0 -10
-5 -10 -11z"/>
<path d="M2070 1961 c0 -6 5 -13 10 -16 6 -3 10 1 10 9 0 9 -4 16 -10 16 -5 0
-10 -4 -10 -9z"/>
<path d="M2375 1961 c-4 -7 -17 -11 -30 -9 -13 2 -33 -6 -44 -16 -18 -16 -25
-17 -47 -7 -30 13 -39 9 -30 -14 4 -11 12 -14 27 -10 34 11 133 9 155 -3 37
-20 79 -92 79 -136 0 -40 1 -41 38 -44 22 -2 37 1 37 8 0 6 12 27 26 46 21 27
24 37 14 49 -6 8 -9 19 -5 25 4 6 2 17 -5 24 -8 11 -17 12 -40 3 -32 -12 -63
4 -53 29 6 17 -1 18 -27 2 -17 -11 -24 -8 -53 26 -23 25 -37 34 -42 27z"/>
<path d="M2820 1955 c-9 -11 -10 -19 -3 -26 7 -7 14 -5 23 6 9 11 10 19 3 26
-7 7 -14 5 -23 -6z"/>
<path d="M1843 1930 c-24 -27 -33 -30 -62 -25 -19 4 -44 13 -55 21 -30 20 -43
17 -58 -13 -7 -14 -22 -31 -33 -37 -11 -6 -23 -16 -27 -22 -4 -6 -21 -17 -38
-24 -24 -10 -33 -10 -46 1 -13 10 -17 10 -24 -1 -11 -18 6 -40 29 -40 10 0 39
-7 64 -16 35 -12 49 -22 53 -40 10 -38 24 -28 24 16 0 39 2 41 85 96 68 45 95
58 135 62 l51 5 -22 23 c-29 31 -42 30 -76 -6z"/>
<path d="M2917 1883 c-41 -24 -56 -38 -48 -46 7 -7 27 3 66 33 30 23 55 44 55
46 0 9 -18 1 -73 -33z"/>
<path d="M1161 1891 c-7 -5 -11 -13 -7 -19 9 -15 -52 -82 -74 -82 -20 0 -46
-27 -36 -37 3 -4 12 -1 18 5 7 7 22 12 35 12 13 0 23 5 23 10 0 6 18 28 40 50
39 39 52 70 28 70 -7 0 -19 -4 -27 -9z"/>
<path d="M1380 1826 c0 -15 21 -26 52 -26 19 0 19 1 -5 20 -29 23 -47 26 -47
6z"/>
<path d="M2650 1800 c0 -11 7 -20 15 -20 17 0 18 2 9 24 -9 23 -24 20 -24 -4z"/>
<path d="M2317 1693 c-4 -3 -7 -15 -7 -25 0 -20 35 -25 60 -8 13 9 12 12 -4
25 -21 16 -39 19 -49 8z"/>
<path d="M1787 1632 c-22 -24 -21 -32 1 -32 21 0 56 33 45 43 -11 12 -29 8
-46 -11z"/>
<path d="M1510 1626 c0 -10 9 -16 21 -16 24 0 21 23 -4 28 -10 2 -17 -3 -17
-12z"/>
<path d="M1701 1594 c-22 -23 -23 -26 -8 -41 9 -9 18 -15 19 -12 2 2 13 18 26
36 27 39 27 43 5 43 -10 0 -29 -12 -42 -26z"/>
<path d="M1200 1499 c0 -5 5 -7 10 -4 6 3 10 8 10 11 0 2 -4 4 -10 4 -5 0 -10
-5 -10 -11z"/>
<path d="M988 1459 c-18 -10 -25 -39 -10 -39 4 0 15 12 25 25 19 26 14 31 -15
14z"/>
<path d="M1506 1129 c-15 -22 -23 -22 -98 -3 -21 5 -28 3 -28 -8 0 -10 10 -16
28 -16 15 -1 47 -4 71 -8 46 -7 61 3 61 39 0 23 -16 22 -34 -4z"/>
<path d="M1085 1110 c-18 -19 -17 -20 3 -20 15 0 22 6 22 20 0 11 -2 20 -3 20
-2 0 -12 -9 -22 -20z"/>
<path d="M2110 1108 c0 -10 -7 -18 -15 -18 -8 0 -15 -5 -15 -10 0 -12 36 -5
88 16 46 19 40 35 -13 32 -35 -2 -45 -7 -45 -20z"/>
<path d="M2030 1070 c0 -5 6 -10 14 -10 8 0 18 5 21 10 3 6 -3 10 -14 10 -12
0 -21 -4 -21 -10z"/>
<path d="M2349 1064 c-12 -14 -11 -16 5 -13 11 2 21 10 24 17 5 17 -13 15 -29
-4z"/>
<path d="M3978 705 c-26 -19 -51 -35 -55 -35 -5 -1 -28 -19 -53 -41 -32 -29
-36 -36 -15 -23 44 27 175 123 175 129 0 8 -2 7 -52 -30z"/>
<path d="M1998 283 c7 -3 16 -2 19 1 4 3 -2 6 -13 5 -11 0 -14 -3 -6 -6z"/>
</g>
</svg>
